<svg id="Layer_1" data-name="Layer 1" xmlns="http://www.w3.org/2000/svg" viewBox="0 0 777.46 221.24"><title>interlink-logo</title><path d="M787.17,95.75a4,4,0,0,0-4.29-4.11h-5.77v13.12h2.31v-4.9h2.28l2.91,4.9h2.66l-3.21-5.15A3.69,3.69,0,0,0,787.17,95.75Zm-7.75,2.09V93.66h3.14a2.1,2.1,0,1,1,0,4.18Z" transform="translate(-16.95 -17.84)" fill="#d71920"/><path d="M781.73,85.52A12.68,12.68,0,1,0,794.42,98.2,12.3,12.3,0,0,0,781.73,85.52Zm0,23A10.31,10.31,0,1,1,791.94,98.2,10,10,0,0,1,781.73,108.51Z" transform="translate(-16.95 -17.84)" fill="#d71920"/><polygon points="444.53 154.24 485.84 154.24 485.83 141.74 460.45 141.74 460.45 114.6 482.73 114.6 482.88 104.23 460.45 104.23 460.45 80.18 485.84 80.18 485.84 67.68 444.53 67.68 444.53 154.24" fill="#d71920"/><rect x="301.7" y="67.68" width="15.92" height="86.56" fill="#d71920"/><polygon points="369.09 119.18 347.59 67.68 329.01 67.68 329.01 154.24 344.27 154.24 344.48 100.1 366.13 154.24 384.57 154.24 384.57 67.68 369.31 67.68 369.09 119.18" fill="#d71920"/><polygon points="392.91 80.18 406.59 80.18 406.59 154.24 422.51 154.24 422.51 80.18 436.19 80.18 436.19 67.68 392.91 67.68 392.91 80.18" fill="#d71920"/><path d="M560.35,117.3c1.22-2.62,1.84-6.73,1.84-12.19,0-7.31-1.8-12.43-5.35-15.22s-10-4.37-18.79-4.37H512.74v86.56h15.92V132.44h6.53c3.68,0,6.31.86,8.07,2.67a10.58,10.58,0,0,1,2.55,7.51v29.46h16V141.16c0-11.76-7.13-14.28-10.3-14.84C556.05,124.92,558.87,120.3,560.35,117.3ZM546,114l-.81,3.33-.17.3c-1.12,2-3.53,4.49-8.61,4.49h-7.77V96h6.76c4.68,0,7.86,1.3,9.45,3.87l.07.11,0,.12c.87,1.79,1.27,4.52,1.27,8.59Z" transform="translate(-16.95 -17.84)" fill="#d71920"/><polygon points="571.6 67.68 555.68 67.68 555.68 154.24 594.13 154.24 594.13 141.74 571.6 141.74 571.6 67.68" fill="#d71920"/><rect x="601.61" y="67.68" width="15.92" height="86.56" fill="#d71920"/><polygon points="669.01 119.18 647.5 67.68 628.92 67.68 628.92 154.24 644.18 154.24 644.4 100.1 666.04 154.24 684.48 154.24 684.48 67.68 669.22 67.68 669.01 119.18" fill="#d71920"/><polygon points="747.45 67.68 730.99 67.68 710.4 104.32 710.4 67.68 695.15 67.68 695.15 154.24 710.4 154.24 710.4 108.25 734.06 154.24 750.89 154.24 725.63 106.09 747.45 67.68" fill="#d71920"/><path d="M318.65,210.46v-21.1h9.27c4.43,0,6.89,3,6.89,6.61s-2.5,6.62-6.89,6.62h-5.57v7.87ZM331,196a3.33,3.33,0,0,0-3.61-3.35h-5.06v6.71h5.06A3.33,3.33,0,0,0,331,196Z" transform="translate(-16.95 -17.84)" fill="#d71920"/><path d="M352.67,210.46l-1.55-4.05h-9.69l-1.55,4.05h-4.2l8.29-21.1h4.61l8.29,21.1Zm-6.4-17.37-3.79,10.07h7.59Z" transform="translate(-16.95 -17.84)" fill="#d71920"/><path d="M373.62,210.46l-4.68-7.87h-3.67v7.87h-3.7v-21.1h9.27c4.17,0,6.89,2.72,6.89,6.61a5.91,5.91,0,0,1-5,6.2l5.16,8.29Zm.32-14.49a3.33,3.33,0,0,0-3.61-3.35h-5.06v6.71h5.06A3.33,3.33,0,0,0,373.94,196Z" transform="translate(-16.95 -17.84)" fill="#d71920"/><path d="M388.53,210.46V192.62h-6.39v-3.26h16.48v3.26h-6.39v17.84Z" transform="translate(-16.95 -17.84)" fill="#d71920"/><path d="M418.85,210.46l-11-15.06v15.06h-3.7v-21.1h3.79L418.72,204V189.36h3.7v21.1Z" transform="translate(-16.95 -17.84)" fill="#d71920"/><path d="M429.3,210.46v-21.1h14.46v3.26H433v5.47h10.54v3.26H433v5.86h10.76v3.25Z" transform="translate(-16.95 -17.84)" fill="#d71920"/><path d="M462,210.46l-4.68-7.87h-3.67v7.87h-3.7v-21.1h9.27c4.17,0,6.9,2.72,6.9,6.61a5.91,5.91,0,0,1-5,6.2l5.15,8.29Zm.32-14.49a3.33,3.33,0,0,0-3.61-3.35h-5.06v6.71h5.06A3.33,3.33,0,0,0,462.31,196Z" transform="translate(-16.95 -17.84)" fill="#d71920"/><path d="M470.83,207.49l2.05-2.85a9.13,9.13,0,0,0,6.68,2.91c3,0,4.24-1.48,4.24-2.88,0-4.42-12.31-1.67-12.31-9.46,0-3.48,3.07-6.17,7.69-6.17a11,11,0,0,1,7.91,3L485,194.74a8.57,8.57,0,0,0-6.11-2.41c-2.18,0-3.57,1-3.57,2.63,0,3.92,12.27,1.49,12.27,9.37,0,3.51-2.46,6.51-8.16,6.51A11.28,11.28,0,0,1,470.83,207.49Z" transform="translate(-16.95 -17.84)" fill="#d71920"/><path d="M508,210.46v-9.2h-11v9.2h-3.7v-21.1h3.7V198h11v-8.64h3.71v21.1Z" transform="translate(-16.95 -17.84)" fill="#d71920"/><path d="M518.62,210.46v-21.1h3.7v21.1Z" transform="translate(-16.95 -17.84)" fill="#d71920"/><path d="M529.19,210.46v-21.1h9.27c4.43,0,6.9,3,6.9,6.61s-2.5,6.62-6.9,6.62h-5.57v7.87ZM541.56,196a3.33,3.33,0,0,0-3.6-3.35h-5.07v6.71H538A3.33,3.33,0,0,0,541.56,196Z" transform="translate(-16.95 -17.84)" fill="#d71920"/><path d="M566.35,210.46V192.62H560v-3.26h16.48v3.26h-6.39v17.84Z" transform="translate(-16.95 -17.84)" fill="#d71920"/><path d="M580.21,199.93c0-6.3,4.46-10.92,10.79-10.92s10.79,4.62,10.79,10.92-4.46,10.91-10.79,10.91S580.21,206.22,580.21,199.93Zm17.79,0c0-4.37-2.76-7.63-7-7.63s-7,3.26-7,7.63,2.72,7.62,7,7.62S598,204.26,598,199.93Z" transform="translate(-16.95 -17.84)" fill="#d71920"/><path d="M616.9,207.49l2.05-2.85a9.13,9.13,0,0,0,6.68,2.91c3,0,4.24-1.48,4.24-2.88,0-4.42-12.31-1.67-12.31-9.46,0-3.48,3.07-6.17,7.69-6.17a11,11,0,0,1,7.91,3L631,194.74a8.55,8.55,0,0,0-6.1-2.41c-2.19,0-3.58,1-3.58,2.63,0,3.92,12.27,1.49,12.27,9.37,0,3.51-2.46,6.51-8.16,6.51A11.28,11.28,0,0,1,616.9,207.49Z" transform="translate(-16.95 -17.84)" fill="#d71920"/><path d="M639.43,202.14V189.36h3.74V202c0,3.35,1.87,5.53,5.41,5.53S654,205.37,654,202V189.36h3.73v12.75c0,5.25-3,8.73-9.11,8.73S639.43,207.33,639.43,202.14Z" transform="translate(-16.95 -17.84)" fill="#d71920"/><path d="M663.62,199.93c0-6.49,4.84-10.92,11.07-10.92a9.55,9.55,0,0,1,8.48,4.75L680,195.37a6.28,6.28,0,0,0-5.32-3.07c-4.18,0-7.28,3.2-7.28,7.63s3.1,7.62,7.28,7.62a6.2,6.2,0,0,0,5.32-3.07l3.16,1.62a9.58,9.58,0,0,1-8.48,4.74C668.46,210.84,663.62,206.41,663.62,199.93Z" transform="translate(-16.95 -17.84)" fill="#d71920"/><path d="M687.58,199.93c0-6.49,4.84-10.92,11.07-10.92a9.55,9.55,0,0,1,8.48,4.75L704,195.37a6.28,6.28,0,0,0-5.32-3.07c-4.18,0-7.28,3.2-7.28,7.63s3.1,7.62,7.28,7.62a6.2,6.2,0,0,0,5.32-3.07l3.16,1.62a9.58,9.58,0,0,1-8.48,4.74C692.42,210.84,687.58,206.41,687.58,199.93Z" transform="translate(-16.95 -17.84)" fill="#d71920"/><path d="M712.49,210.46v-21.1H727v3.26H716.19v5.47h10.53v3.26H716.19v5.86H727v3.25Z" transform="translate(-16.95 -17.84)" fill="#d71920"/><path d="M731.76,207.49l2.06-2.85a9.08,9.08,0,0,0,6.67,2.91c3,0,4.24-1.48,4.24-2.88,0-4.42-12.3-1.67-12.3-9.46,0-3.48,3.07-6.17,7.68-6.17a11,11,0,0,1,7.91,3l-2.11,2.75a8.59,8.59,0,0,0-6.11-2.41c-2.19,0-3.58,1-3.58,2.63,0,3.92,12.28,1.49,12.28,9.37,0,3.51-2.47,6.51-8.16,6.51A11.31,11.31,0,0,1,731.76,207.49Z" transform="translate(-16.95 -17.84)" fill="#d71920"/><path d="M752.94,207.49l2-2.85a9.13,9.13,0,0,0,6.68,2.91c3,0,4.24-1.48,4.24-2.88,0-4.42-12.31-1.67-12.31-9.46,0-3.48,3.07-6.17,7.69-6.17a11,11,0,0,1,7.91,3l-2.12,2.75a8.56,8.56,0,0,0-6.11-2.41c-2.18,0-3.57,1-3.57,2.63,0,3.92,12.27,1.49,12.27,9.37,0,3.51-2.46,6.51-8.16,6.51A11.28,11.28,0,0,1,752.94,207.49Z" transform="translate(-16.95 -17.84)" fill="#d71920"/><ellipse cx="126.5" cy="110.94" rx="126.5" ry="60.47" fill="#005c9a"/><path d="M103.51,239.08c-24.67,0-40.78-6.37-47.88-19-6.9-12.23-4.24-28.62,7.9-48.73L124.39,70.59a18.7,18.7,0,0,0-1.06-21,56.27,56.27,0,0,0-8.63-8.17l-15-12.38,19.11-3.8c16.58-3.3,30.15-5.45,40.32-6.4,7.52-.7,14.56-1.05,20.92-1.05,27.2,0,44,6.32,51.32,19.32C238.19,49.3,235.64,65,223.54,85L162.27,186.47a18.57,18.57,0,0,0,2,22.08,35.14,35.14,0,0,0,4.75,4c.66.5,1.32,1,2,1.52l15.28,12-18.92,4.31a393.66,393.66,0,0,1-40.22,7.13A193.32,193.32,0,0,1,103.51,239.08Z" transform="translate(-16.95 -17.84)" fill="#005c9a"/><path d="M215.67,79.94,154.4,181.42a27.89,27.89,0,0,0,3,33,31.73,31.73,0,0,0,7.93,6.66A382.15,382.15,0,0,1,126,228c-52.11,6.46-81.8-7-54.55-52.15L132.32,75.07a27.83,27.83,0,0,0-1.64-31.35c-2.74-3.56-6.51-6.72-10.08-9.66,13.48-2.68,27.87-5.19,39.38-6.26C212.26,22.94,242.92,34.8,215.67,79.94Z" transform="translate(-16.95 -17.84)" fill="#d71920"/></svg>